<?xml version="1.0" encoding="utf-8"?>
<!-- Generator: Adobe Illustrator 25.4.1, SVG Export Plug-In . SVG Version: 6.00 Build 0)  -->
<svg version="1.1" xmlns="http://www.w3.org/2000/svg" xmlns:xlink="http://www.w3.org/1999/xlink" x="0px" y="0px"
	 viewBox="0 0 1920 1080" style="enable-background:new 0 0 1920 1080;" xml:space="preserve">
<style type="text/css">
	.st0{fill:url(#SVGID_1_);}
	.st1{fill:url(#SVGID_00000174599791192128167010000007414591487701554855_);}
	.st2{fill:url(#SVGID_00000106851690444537226240000014669882410309293989_);}
	.st3{fill:url(#SVGID_00000033355309374296037430000006640134277703991188_);}
	.st4{fill:url(#SVGID_00000146467477221950708050000003498366324768919985_);}
	.st5{fill:url(#SVGID_00000013888922993689830560000000284109503998198420_);}
	.st6{fill:url(#SVGID_00000124141285407648959720000018422411518029203596_);}
	.st7{fill:url(#SVGID_00000167367082347991464810000009666211154866508976_);}
	.st8{fill:url(#SVGID_00000150064296815304970070000017131052999208180400_);}
	.st9{fill:none;stroke:#000000;stroke-width:10;stroke-miterlimit:10;}
	.st10{fill:url(#SVGID_00000093179192158309077500000014205917158875623320_);}
	.st11{fill:url(#SVGID_00000127036853476053892410000006040951573586459011_);}
	.st12{fill:url(#SVGID_00000130634523903038306570000000535701835129605795_);}
	.st13{fill:url(#SVGID_00000177479846185290424690000008208996841158920326_);}
	.st14{fill:url(#SVGID_00000042733348516464174280000015272676274120945327_);}
	.st15{fill:url(#SVGID_00000021824029638271778690000014840064127558092179_);}
	.st16{fill:url(#SVGID_00000114055555787279545940000013041598125862819512_);}
	.st17{fill:url(#SVGID_00000142871950618460940180000014956570365011964857_);}
	.st18{fill:url(#SVGID_00000069362279661109548800000001555783820943875492_);}
	
		.st19{fill:url(#SVGID_00000160904824244561025690000004598213112695349901_);stroke:url(#SVGID_00000109722671291571008800000002643802211673987721_);stroke-miterlimit:10;}
	.st20{fill:none;stroke:url(#SVGID_00000007422078596261428230000002375971622065754035_);stroke-width:13;stroke-miterlimit:10;}
</style>
<g id="Layer_7">
</g>
<g id="Layer_1">
</g>
<g id="Layer_2">
</g>
<g id="Layer_3">
</g>
<g id="Layer_5">
</g>
<g id="Layer_4">
	<g>
		<linearGradient id="SVGID_1_" gradientUnits="userSpaceOnUse" x1="636.7248" y1="519.8092" x2="741.2811" y2="519.8092">
			<stop  offset="0" style="stop-color:#FFD700"/>
			<stop  offset="0.7067" style="stop-color:#D19F20"/>
			<stop  offset="0.8966" style="stop-color:#BC8F20"/>
			<stop  offset="0.9944" style="stop-color:#000000"/>
		</linearGradient>
		<path class="st0" d="M680.002,314.7l-40.491,469.585l-2.786,32.309c2.961,0.304,5.922,0.608,8.884,0.911h28.239
			c5.83-5.513,13.923-8.623,21.982-10.473l45.452-584.919L680.002,314.7z"/>
		
			<linearGradient id="SVGID_00000114073088289080700850000016432539017859759005_" gradientUnits="userSpaceOnUse" x1="1244.3059" y1="588.7946" x2="1316.12" y2="588.7946">
			<stop  offset="0" style="stop-color:#FFD700"/>
			<stop  offset="0.7067" style="stop-color:#D19F20"/>
			<stop  offset="0.8966" style="stop-color:#BC8F20"/>
			<stop  offset="0.9944" style="stop-color:#000000"/>
		</linearGradient>
		<path style="fill:url(#SVGID_00000114073088289080700850000016432539017859759005_);" d="M1295.705,816.456
			c6.591,0.551,13.18,1.218,19.721,2.161l-2.434-27.523l-0.961-10.862l-31.818-359.776l-35.907-61.484l32.826,456.006
			C1283.391,815.291,1289.662,815.951,1295.705,816.456z"/>
		
			<linearGradient id="SVGID_00000114075036224239596280000015723683768491178917_" gradientUnits="userSpaceOnUse" x1="1312.031" y1="785.663" x2="1312.9916" y2="785.663">
			<stop  offset="0" style="stop-color:#FFD700"/>
			<stop  offset="0.7067" style="stop-color:#D19F20"/>
			<stop  offset="0.8966" style="stop-color:#BC8F20"/>
			<stop  offset="0.9944" style="stop-color:#000000"/>
		</linearGradient>
		
			<line style="fill:url(#SVGID_00000114075036224239596280000015723683768491178917_);" x1="1312.992" y1="791.094" x2="1312.031" y2="780.232"/>
		
			<linearGradient id="SVGID_00000029750870704040542720000011768447232927750791_" gradientUnits="userSpaceOnUse" x1="853.977" y1="625.1747" x2="865.2659" y2="625.1747">
			<stop  offset="0" style="stop-color:#FFD700"/>
			<stop  offset="0.7067" style="stop-color:#D19F20"/>
			<stop  offset="0.8966" style="stop-color:#BC8F20"/>
			<stop  offset="0.9944" style="stop-color:#000000"/>
		</linearGradient>
		
			<line style="fill:url(#SVGID_00000029750870704040542720000011768447232927750791_);" x1="865.219" y1="591.002" x2="854.801" y2="659.347"/>
		
			<linearGradient id="SVGID_00000001664739082791720150000003352610911707781564_" gradientUnits="userSpaceOnUse" x1="841.3199" y1="726.7434" x2="851.7809" y2="726.7434">
			<stop  offset="0" style="stop-color:#FFD700"/>
			<stop  offset="0.7067" style="stop-color:#D19F20"/>
			<stop  offset="0.8966" style="stop-color:#BC8F20"/>
			<stop  offset="0.9944" style="stop-color:#000000"/>
		</linearGradient>
		
			<line style="fill:url(#SVGID_00000001664739082791720150000003352610911707781564_);" x1="851.738" y1="692.498" x2="841.32" y2="760.989"/>
		
			<linearGradient id="SVGID_00000113323839379419442110000010107294614116057996_" gradientUnits="userSpaceOnUse" x1="868.4744" y1="519.7361" x2="881.7645" y2="519.7361">
			<stop  offset="0" style="stop-color:#FFD700"/>
			<stop  offset="0.7067" style="stop-color:#D19F20"/>
			<stop  offset="0.8966" style="stop-color:#BC8F20"/>
			<stop  offset="0.9944" style="stop-color:#000000"/>
		</linearGradient>
		<path style="fill:url(#SVGID_00000113323839379419442110000010107294614116057996_);" d="M881.764,485.564l-11.184,68.345"/>
		
			<linearGradient id="SVGID_00000155147502308907342140000003600205825292140694_" gradientUnits="userSpaceOnUse" x1="1144.3025" y1="649.525" x2="1172.3884" y2="649.525">
			<stop  offset="0" style="stop-color:#FFD700"/>
			<stop  offset="0.7067" style="stop-color:#D19F20"/>
			<stop  offset="0.8966" style="stop-color:#BC8F20"/>
			<stop  offset="0.9944" style="stop-color:#000000"/>
		</linearGradient>
		<path style="fill:url(#SVGID_00000155147502308907342140000003600205825292140694_);" d="M1144.302,550.482 M1147.001,583.075
			l12.265,67.293 M1158.775,685.771l13.614,62.797"/>
		
			<linearGradient id="SVGID_00000137826541175011599040000009175939810764230810_" gradientUnits="userSpaceOnUse" x1="705.4326" y1="517.5135" x2="864.9126" y2="517.5135">
			<stop  offset="0" style="stop-color:#FFD700"/>
			<stop  offset="0.7067" style="stop-color:#D19F20"/>
			<stop  offset="0.8966" style="stop-color:#BC8F20"/>
			<stop  offset="0.9944" style="stop-color:#000000"/>
		</linearGradient>
		<path style="fill:url(#SVGID_00000137826541175011599040000009175939810764230810_);" d="M821.404,663.144l3.983-23.366
			l-91.919-25.849l3.064-33.442l94.064,30.522l3.983-23.804l-96.362-27.455l3.064-33.588l97.894,33.296l4.136-24.096l-102.03-31.544
			l2.604-33.442l101.571,35.195v14.604l19.456-114.055V273.372l-111.682-45.563l-46.802,577.407
			c9.063-1.115,18.238-1.165,27.304,0.068c1.44,0.196,2.418,0.801,3.037,1.604c0.737-0.415,1.643-0.661,2.719-0.657
			c9.076,0.03,18.141,0.499,27.21,0.782c1.7-1.144,3.325-2.417,4.87-3.817c3.886-3.523,9.377,0.129,9.104,4.024
			c2.889-0.013,5.876-0.043,8.891-0.171c-0.889-2.526,0.082-5.556,3.459-6.264c1.666-0.349,3.345-0.652,5.031-0.934l9.409-55.363
			l-82.727-20.591l2.911-32.712l84.872,24.68l3.83-23.22l-87.017-24.534l2.911-33.442L821.404,663.144z M763.648,250.59
			l91.919,35.633v29.792l-94.83-31.982L763.648,250.59z M762.116,305.354l91.919,35.633v29.938h-0.613l-94.217-31.982
			L762.116,305.354z M755.988,358.95l95.137,36.947v29.938l-98.2-33.296L755.988,358.95z M750.933,412.837l97.128,37.824v29.938
			l-100.039-34.173L750.933,412.837z"/>
		
			<linearGradient id="SVGID_00000179608368225561640450000006988771830428256399_" gradientUnits="userSpaceOnUse" x1="1108.4899" y1="583.6681" x2="1264.2876" y2="583.6681">
			<stop  offset="0" style="stop-color:#FFD700"/>
			<stop  offset="0.7067" style="stop-color:#D19F20"/>
			<stop  offset="0.8966" style="stop-color:#BC8F20"/>
			<stop  offset="0.9944" style="stop-color:#000000"/>
		</linearGradient>
		<path style="fill:url(#SVGID_00000179608368225561640450000006988771830428256399_);" d="M1261.483,815.23
			c0.72-0.075,1.443-0.139,2.169-0.193l-26.708-463.048l-109.824,41.08l-18.63,215.672l10.216,46.01l122.445-27.387l2.103,36.425
			l-117.487,23.005l4.958,22.457l112.979-21.088l3.606,39.3l-110.426,13.693l14.406,64.611c0.853-1.006,2.146-1.713,3.881-1.787
			c14.209-0.608,28.924,0.634,43.248,3.418c11.205,0.109,22.412,0.486,33.545,1.732c9.595,1.074,19.795,2.518,28.81,6.216
			C1261.003,815.298,1261.237,815.256,1261.483,815.23z M1136.885,413.883l90.143-30.263l1.502,34.508l-94.2,25.881
			L1136.885,413.883z M1131.927,461.947l99.608-27.798l1.953,30.947l-103.965,27.387L1131.927,461.947z M1127.12,510.148
			l106.369-30.263l1.653,32.727L1124.566,540L1127.12,510.148z M1122.162,558.212l114.632-30.126l1.352,33.275l-118.388,27.387
			L1122.162,558.212z M1114.8,636.539l2.404-30.126l120.942-30.126l2.554,31.769L1114.8,636.539z"/>
	</g>
	<g>
		<g>
			<path d="M958.081,798.355c7.309-0.059,14.593-0.637,21.889-0.942V262.861l-85.461,64.481v463.845
				c4.14,0.261,8.283,0.81,12.425,1.722c2.239,0.493,3.396,1.911,3.703,3.518c6.359-2.795,15.8-1.095,22.576-0.143
				c1.25,0.175,2.167,0.65,2.793,1.3c6.768,0.244,13.528,0.613,20.283,1.052C956.823,798.461,957.419,798.361,958.081,798.355z"/>
			<path d="M825.188,797.947c4.302,0.079,8.792,0.279,13.213,0.868c7.765-1.684,15.586-3.507,23.443-4.97V645.723l19.921-6.471
				V510.919l-19.921,10.105V351.989l-63.125,47.628v400.127C807.441,798.333,816.38,797.785,825.188,797.947z"/>
		</g>
	</g>
	<g>
		<g>
			<path d="M1123.91,640.168c16.266-25.39,24.145-60.402,24.145-105.828c0-44.546-6.342-85.357-19.354-123.392
				c-12.068-35.167-29.726-61.558-53.727-79.083l-90.174-65.841v531.242c0.65-0.013,1.299-0.031,1.95-0.036
				c0.464-0.004,0.894,0.042,1.296,0.125c13.848-2.523,28.422-3.411,42.492-3.175c7.381,0.124,17.925,0.237,26.111,3.331V454.149
				l11.569,6.567c15.341,8.707,22.801,24.406,22.801,47.322c0,25.995-6.444,35.921-19.644,29.638l-5.063-2.409v128.248
				l24.563,133.794c6.681-0.686,13.724,0.739,20.62,3.134c2.306,0.801,4.839,1.871,7.507,2.994
				c9.859,0.114,19.678,1.151,28.919,3.199c0.81,0.093,1.615,0.207,2.417,0.328L1123.91,640.168z"/>
		</g>
	</g>
	<path class="st9" d="M636.725,816.594c104.913-14.49,228.896-24.534,367.941-22.239c115.617,1.908,220.006,11.99,310.861,25.411"/>
	<g>
		
			<linearGradient id="SVGID_00000041254891538707577200000006051025392005214131_" gradientUnits="userSpaceOnUse" x1="636.7248" y1="519.8092" x2="741.2811" y2="519.8092">
			<stop  offset="0" style="stop-color:#FFD700"/>
			<stop  offset="0.433" style="stop-color:#E0B116"/>
			<stop  offset="0.7682" style="stop-color:#D19F20"/>
			<stop  offset="0.9358" style="stop-color:#BC8F20"/>
			<stop  offset="1" style="stop-color:#000000"/>
		</linearGradient>
		<path style="fill:url(#SVGID_00000041254891538707577200000006051025392005214131_);" d="M680.002,314.7l-40.491,469.585
			l-2.786,32.309c2.961,0.304,5.922,0.608,8.884,0.911h28.239c5.83-5.513,13.923-8.623,21.982-10.473l45.452-584.919L680.002,314.7z
			"/>
		
			<linearGradient id="SVGID_00000105394915011503585610000007525894372040106940_" gradientUnits="userSpaceOnUse" x1="1244.3059" y1="588.7946" x2="1316.12" y2="588.7946">
			<stop  offset="0" style="stop-color:#FFD700"/>
			<stop  offset="0.433" style="stop-color:#E0B116"/>
			<stop  offset="0.7682" style="stop-color:#D19F20"/>
			<stop  offset="0.9358" style="stop-color:#BC8F20"/>
			<stop  offset="1" style="stop-color:#000000"/>
		</linearGradient>
		<path style="fill:url(#SVGID_00000105394915011503585610000007525894372040106940_);" d="M1295.705,816.456
			c6.591,0.551,13.18,1.218,19.721,2.161l-2.434-27.523l-0.961-10.862l-31.818-359.776l-35.907-61.484l32.826,456.006
			C1283.391,815.291,1289.662,815.951,1295.705,816.456z"/>
		
			<linearGradient id="SVGID_00000166677155381672819370000011429066294291816893_" gradientUnits="userSpaceOnUse" x1="1312.031" y1="785.663" x2="1312.9916" y2="785.663">
			<stop  offset="0" style="stop-color:#FFD700"/>
			<stop  offset="0.433" style="stop-color:#E0B116"/>
			<stop  offset="0.7682" style="stop-color:#D19F20"/>
			<stop  offset="0.9358" style="stop-color:#BC8F20"/>
			<stop  offset="1" style="stop-color:#000000"/>
		</linearGradient>
		
			<line style="fill:url(#SVGID_00000166677155381672819370000011429066294291816893_);" x1="1312.992" y1="791.094" x2="1312.031" y2="780.232"/>
		
			<linearGradient id="SVGID_00000165947534773375305490000005660859914296085164_" gradientUnits="userSpaceOnUse" x1="853.977" y1="625.1747" x2="865.2659" y2="625.1747">
			<stop  offset="0" style="stop-color:#FFD700"/>
			<stop  offset="0.433" style="stop-color:#E0B116"/>
			<stop  offset="0.7682" style="stop-color:#D19F20"/>
			<stop  offset="0.9358" style="stop-color:#BC8F20"/>
			<stop  offset="1" style="stop-color:#000000"/>
		</linearGradient>
		
			<line style="fill:url(#SVGID_00000165947534773375305490000005660859914296085164_);" x1="865.219" y1="591.002" x2="854.801" y2="659.347"/>
		
			<linearGradient id="SVGID_00000085938433317354269800000018195725062248833173_" gradientUnits="userSpaceOnUse" x1="841.3199" y1="726.7434" x2="851.7809" y2="726.7434">
			<stop  offset="0" style="stop-color:#FFD700"/>
			<stop  offset="0.433" style="stop-color:#E0B116"/>
			<stop  offset="0.7682" style="stop-color:#D19F20"/>
			<stop  offset="0.9358" style="stop-color:#BC8F20"/>
			<stop  offset="1" style="stop-color:#000000"/>
		</linearGradient>
		
			<line style="fill:url(#SVGID_00000085938433317354269800000018195725062248833173_);" x1="851.738" y1="692.498" x2="841.32" y2="760.989"/>
		
			<linearGradient id="SVGID_00000181078688481955847390000014771962625280654523_" gradientUnits="userSpaceOnUse" x1="868.4744" y1="519.7361" x2="881.7645" y2="519.7361">
			<stop  offset="0" style="stop-color:#FFD700"/>
			<stop  offset="0.433" style="stop-color:#E0B116"/>
			<stop  offset="0.7682" style="stop-color:#D19F20"/>
			<stop  offset="0.9358" style="stop-color:#BC8F20"/>
			<stop  offset="1" style="stop-color:#000000"/>
		</linearGradient>
		<path style="fill:url(#SVGID_00000181078688481955847390000014771962625280654523_);" d="M881.764,485.564l-11.184,68.345"/>
		
			<linearGradient id="SVGID_00000010995501641805182690000001414272099464862121_" gradientUnits="userSpaceOnUse" x1="1144.3025" y1="649.525" x2="1172.3884" y2="649.525">
			<stop  offset="0" style="stop-color:#FFD700"/>
			<stop  offset="0.433" style="stop-color:#E0B116"/>
			<stop  offset="0.7682" style="stop-color:#D19F20"/>
			<stop  offset="0.9358" style="stop-color:#BC8F20"/>
			<stop  offset="1" style="stop-color:#000000"/>
		</linearGradient>
		<path style="fill:url(#SVGID_00000010995501641805182690000001414272099464862121_);" d="M1144.302,550.482 M1147.001,583.075
			l12.265,67.293 M1158.775,685.771l13.614,62.797"/>
		
			<linearGradient id="SVGID_00000133504361778305157740000008779982170274956201_" gradientUnits="userSpaceOnUse" x1="705.4326" y1="517.5135" x2="864.9126" y2="517.5135">
			<stop  offset="0" style="stop-color:#FFD700"/>
			<stop  offset="0.433" style="stop-color:#E0B116"/>
			<stop  offset="0.7682" style="stop-color:#D19F20"/>
			<stop  offset="0.9358" style="stop-color:#BC8F20"/>
			<stop  offset="1" style="stop-color:#000000"/>
		</linearGradient>
		<path style="fill:url(#SVGID_00000133504361778305157740000008779982170274956201_);" d="M821.404,663.144l3.983-23.366
			l-91.919-25.849l3.064-33.442l94.064,30.522l3.983-23.804l-96.362-27.455l3.064-33.588l97.894,33.296l4.136-24.096l-102.03-31.544
			l2.604-33.442l101.571,35.195v14.604l19.456-114.055V273.372l-111.682-45.563l-46.802,577.407
			c9.063-1.115,18.238-1.165,27.304,0.068c1.44,0.196,2.418,0.801,3.037,1.604c0.737-0.415,1.643-0.661,2.719-0.657
			c9.076,0.03,18.141,0.499,27.21,0.782c1.7-1.144,3.325-2.417,4.87-3.817c3.886-3.523,9.377,0.129,9.104,4.024
			c2.889-0.013,5.876-0.043,8.891-0.171c-0.889-2.526,0.082-5.556,3.459-6.264c1.666-0.349,3.345-0.652,5.031-0.934l9.409-55.363
			l-82.727-20.591l2.911-32.712l84.872,24.68l3.83-23.22l-87.017-24.534l2.911-33.442L821.404,663.144z M763.648,250.59
			l91.919,35.633v29.792l-94.83-31.982L763.648,250.59z M762.116,305.354l91.919,35.633v29.938h-0.613l-94.217-31.982
			L762.116,305.354z M755.988,358.95l95.137,36.947v29.938l-98.2-33.296L755.988,358.95z M750.933,412.837l97.128,37.824v29.938
			l-100.039-34.173L750.933,412.837z"/>
		
			<linearGradient id="SVGID_00000164488023331644508930000001694675891013394854_" gradientUnits="userSpaceOnUse" x1="1108.4899" y1="583.6681" x2="1264.2876" y2="583.6681">
			<stop  offset="0" style="stop-color:#FFD700"/>
			<stop  offset="0.433" style="stop-color:#E0B116"/>
			<stop  offset="0.7682" style="stop-color:#D19F20"/>
			<stop  offset="0.9358" style="stop-color:#BC8F20"/>
			<stop  offset="1" style="stop-color:#000000"/>
		</linearGradient>
		<path style="fill:url(#SVGID_00000164488023331644508930000001694675891013394854_);" d="M1261.483,815.23
			c0.72-0.075,1.443-0.139,2.169-0.193l-26.708-463.048l-109.824,41.08l-18.63,215.672l10.216,46.01l122.445-27.387l2.103,36.425
			l-117.487,23.005l4.958,22.457l112.979-21.088l3.606,39.3l-110.426,13.693l14.406,64.611c0.853-1.006,2.146-1.713,3.881-1.787
			c14.209-0.608,28.924,0.634,43.248,3.418c11.205,0.109,22.412,0.486,33.545,1.732c9.595,1.074,19.795,2.518,28.81,6.216
			C1261.003,815.298,1261.237,815.256,1261.483,815.23z M1136.885,413.883l90.143-30.263l1.502,34.508l-94.2,25.881
			L1136.885,413.883z M1131.927,461.947l99.608-27.798l1.953,30.947l-103.965,27.387L1131.927,461.947z M1127.12,510.148
			l106.369-30.263l1.653,32.727L1124.566,540L1127.12,510.148z M1122.162,558.212l114.632-30.126l1.352,33.275l-118.388,27.387
			L1122.162,558.212z M1114.8,636.539l2.404-30.126l120.942-30.126l2.554,31.769L1114.8,636.539z"/>
	</g>
	<g>
		<g>
			<path d="M958.081,798.355c7.309-0.059,14.593-0.637,21.889-0.942V262.861l-85.461,64.481v463.845
				c4.14,0.261,8.283,0.81,12.425,1.722c2.239,0.493,3.396,1.911,3.703,3.518c6.359-2.795,15.8-1.095,22.576-0.143
				c1.25,0.175,2.167,0.65,2.793,1.3c6.768,0.244,13.528,0.613,20.283,1.052C956.823,798.461,957.419,798.361,958.081,798.355z"/>
			<path d="M825.188,797.947c4.302,0.079,8.792,0.279,13.213,0.868c7.765-1.684,15.586-3.507,23.443-4.97V645.723l19.921-6.471
				V510.919l-19.921,10.105V351.989l-63.125,47.628v400.127C807.441,798.333,816.38,797.785,825.188,797.947z"/>
		</g>
	</g>
	<g>
		<g>
			
				<linearGradient id="SVGID_00000076561425688992717310000014600644273647808402_" gradientUnits="userSpaceOnUse" x1="984.7991" y1="536.4936" x2="1150.3354" y2="536.4936">
				<stop  offset="0" style="stop-color:#FFD700"/>
				<stop  offset="0.3492" style="stop-color:#D4A31E"/>
				<stop  offset="1" style="stop-color:#BC8F20"/>
			</linearGradient>
			
				<linearGradient id="SVGID_00000163047955974650628350000018312306003750936721_" gradientUnits="userSpaceOnUse" x1="984.2991" y1="536.2998" x2="1150.9363" y2="536.2998">
				<stop  offset="0" style="stop-color:#FFD700"/>
				<stop  offset="0.3492" style="stop-color:#D4A31E"/>
				<stop  offset="1" style="stop-color:#BC8F20"/>
			</linearGradient>
			
				<path style="fill:url(#SVGID_00000076561425688992717310000014600644273647808402_);stroke:url(#SVGID_00000163047955974650628350000018312306003750936721_);stroke-miterlimit:10;" d="
				M1123.91,640.168c16.266-25.39,24.145-60.402,24.145-105.828c0-44.546-6.342-85.357-19.354-123.392
				c-12.068-35.167-29.726-61.558-53.727-79.083l-90.174-65.841v531.242c0.65-0.013,1.299-0.031,1.95-0.036
				c0.464-0.004,0.894,0.042,1.296,0.125c13.848-2.523,28.422-3.411,42.492-3.175c7.381,0.124,17.925,0.237,26.111,3.331V454.149
				l11.569,6.567c15.341,8.707,22.801,24.406,22.801,47.322c0,25.995-6.444,35.921-19.644,29.638l-5.063-2.409v128.248
				l24.563,133.794c6.681-0.686,13.724,0.739,20.62,3.134c2.306,0.801,4.839,1.871,7.507,2.994
				c9.859,0.114,19.678,1.151,28.919,3.199c0.81,0.093,1.615,0.207,2.417,0.328L1123.91,640.168z"/>
		</g>
	</g>
	
		<linearGradient id="SVGID_00000118396639832913499490000001025215382313502097_" gradientUnits="userSpaceOnUse" x1="635.8355" y1="806.8625" x2="1316.4772" y2="806.8625">
		<stop  offset="0" style="stop-color:#FFD700"/>
		<stop  offset="0.4274" style="stop-color:#D4A31E"/>
		<stop  offset="0.7682" style="stop-color:#D19F20"/>
		<stop  offset="0.9358" style="stop-color:#BC8F20"/>
		<stop  offset="1" style="stop-color:#C09220"/>
	</linearGradient>
	
		<path style="fill:none;stroke:url(#SVGID_00000118396639832913499490000001025215382313502097_);stroke-width:13;stroke-miterlimit:10;" d="
		M636.725,816.594c104.913-14.49,228.896-24.534,367.941-22.239c115.617,1.908,220.006,11.99,310.861,25.411"/>
</g>
<g id="Layer_6">
	<g>
		<path d="M634.652,895.586v18.138c0,1.047,0.236,1.851,0.711,2.407c0.474,0.557,1.32,1.021,2.539,1.393v1.422h-20.109v-1.422
			c1.185-0.305,2.022-0.744,2.514-1.32c0.49-0.575,0.736-1.388,0.736-2.438V867.25c0-1.049-0.237-1.845-0.711-2.387
			c-0.475-0.541-1.32-0.998-2.539-1.371v-1.422h37.07c7.346,0,12.881,1.101,16.605,3.301c2.166,1.287,3.859,3.115,5.078,5.484
			c1.219,2.37,1.828,5.027,1.828,7.973c0,5.654-1.93,9.86-5.789,12.619c-3.859,2.76-9.768,4.139-17.723,4.139H634.652z
			 M634.652,885.277h19.398c3.555,0,6.025-0.338,7.414-1.016c2.031-0.981,3.047-2.793,3.047-5.434s-1.016-4.451-3.047-5.434
			c-1.354-0.677-3.826-1.016-7.414-1.016h-19.398V885.277z"/>
		<path d="M702.445,895.586v18.138c0,1.047,0.236,1.851,0.711,2.407c0.474,0.557,1.32,1.021,2.539,1.393v1.422h-20.109v-1.422
			c1.185-0.305,2.022-0.744,2.514-1.32c0.49-0.575,0.736-1.388,0.736-2.438V867.25c0-1.049-0.237-1.845-0.711-2.387
			c-0.475-0.541-1.32-0.998-2.539-1.371v-1.422h37.273c4.841,0,8.531,0.246,11.07,0.736c2.539,0.491,4.807,1.38,6.805,2.666
			c4.096,2.675,6.145,7.042,6.145,13.102c0,4.604-1.262,8.201-3.783,10.791c-2.522,2.59-6.594,4.461-12.213,5.611l10.766,14.998
			c1.963,2.77,3.529,4.652,4.697,5.649c1.168,0.996,2.496,1.63,3.986,1.899v1.422h-23.918v-1.422
			c1.763-0.473,2.645-1.232,2.645-2.279c0-0.743-0.543-1.874-1.629-3.395l-11.361-16.264H702.445z M702.445,885.277h20.516
			c3.114,0,5.416-0.338,6.906-1.016c2.099-0.914,3.148-2.725,3.148-5.434c0-2.403-0.736-4.079-2.209-5.027
			c-1.473-0.947-4.088-1.422-7.846-1.422h-20.516V885.277z"/>
		<path d="M787.732,860.852c9.045,0,16.584,2.303,22.615,6.906c7.216,5.553,10.824,13.288,10.824,23.207
			c0,9.311-3.608,16.741-10.824,22.293c-5.964,4.604-13.468,6.906-22.514,6.906c-9.046,0-16.551-2.302-22.514-6.906
			c-7.25-5.552-10.875-13.135-10.875-22.75c0-9.716,3.625-17.299,10.875-22.75C771.317,863.256,778.787,860.953,787.732,860.852z
			 M787.783,871.617c-5.864,0-10.644,1.879-14.339,5.637c-3.424,3.521-5.135,7.939-5.135,13.254c0,5.281,1.711,9.683,5.135,13.203
			c3.695,3.792,8.492,5.688,14.39,5.688c5.864,0,10.644-1.896,14.339-5.688c3.423-3.486,5.135-7.803,5.135-12.949
			c0-5.586-1.712-10.088-5.135-13.508C798.444,873.564,793.646,871.686,787.783,871.617z"/>
		<path d="M882.109,888.375c2.81,1.287,4.875,2.573,6.195,3.859c2.471,2.438,3.707,5.722,3.707,9.852
			c0,5.553-2.1,9.835-6.297,12.848c-3.725,2.675-8.854,4.012-15.387,4.012h-40.473v-1.422c1.185-0.305,2.022-0.744,2.514-1.32
			c0.49-0.575,0.736-1.388,0.736-2.438V867.25c0-1.049-0.237-1.845-0.711-2.387c-0.475-0.541-1.32-0.998-2.539-1.371v-1.422h39.812
			c6.974,0,12.086,1.253,15.336,3.758c3.453,2.641,5.18,6.264,5.18,10.867c0,2.709-0.602,4.926-1.803,6.652
			C887.178,885.074,885.087,886.75,882.109,888.375z M846.714,883.398h20.668c3.25,0,5.552-0.414,6.906-1.244
			c1.354-0.829,2.031-2.26,2.031-4.291c0-1.997-0.669-3.41-2.006-4.24c-1.338-0.829-3.648-1.244-6.932-1.244h-20.668V883.398z
			 M846.714,908.637h21.176c6.838,0,10.258-2.488,10.258-7.465s-3.42-7.465-10.258-7.465h-21.176V908.637z"/>
		<path d="M943.38,904.727h-26.155l-2.947,6.195c-0.711,1.49-1.066,2.658-1.066,3.504c0,1.625,1.083,2.658,3.251,3.098v1.422
			h-20.896v-1.422c1.286-0.203,2.242-0.592,2.869-1.168c0.626-0.575,1.362-1.709,2.209-3.402l20.77-42.047
			c0.778-1.591,1.168-2.979,1.168-4.164c0-1.388-0.948-2.471-2.844-3.25v-1.422h22.09v1.422c-1.862,0.745-2.793,1.896-2.793,3.453
			c0,1.117,0.423,2.488,1.27,4.113l21.532,40.777c1.184,2.215,2.115,3.65,2.793,4.304c0.676,0.654,1.709,1.115,3.098,1.384v1.422
			h-23.233v-1.422c2.198-0.37,3.298-1.398,3.298-3.086c0-1.045-0.424-2.343-1.27-3.895L943.38,904.727z M939.287,896.754
			l-9.314-18.293l-8.865,18.293H939.287z"/>
		<path d="M1003.832,872.379v41.34c0,1.049,0.236,1.852,0.711,2.41c0.473,0.559,1.32,1.023,2.539,1.395v1.422h-20.109v-1.422
			c1.184-0.305,2.021-0.744,2.514-1.32c0.49-0.575,0.736-1.388,0.736-2.438v-41.387h-16.758c-1.084,0-1.904,0.242-2.463,0.726
			c-0.559,0.482-1.008,1.325-1.346,2.524h-1.371V858.82h1.371c0.305,1.186,0.736,2.023,1.295,2.514
			c0.559,0.491,1.381,0.736,2.465,0.736h47.17c1.084,0,1.906-0.236,2.465-0.711c0.559-0.474,1.008-1.32,1.348-2.539h1.371v16.809
			h-1.371c-0.34-1.199-0.787-2.042-1.346-2.524c-0.559-0.483-1.381-0.726-2.463-0.726H1003.832z"/>
		<path d="M1048.469,867.247v46.472c0,1.049,0.236,1.852,0.711,2.41c0.473,0.559,1.32,1.023,2.539,1.395v1.422h-20.109v-1.422
			c1.184-0.305,2.021-0.744,2.514-1.32c0.49-0.575,0.736-1.388,0.736-2.438V867.25c0-1.049-0.238-1.845-0.711-2.387
			c-0.475-0.541-1.32-0.998-2.539-1.371v-1.422h20.109v1.422c-1.219,0.338-2.066,0.786-2.539,1.344
			C1048.705,865.395,1048.469,866.198,1048.469,867.247z"/>
		<path d="M1098.107,918.945l-20.744-37.413v32.185c0,1.049,0.236,1.853,0.711,2.411c0.473,0.559,1.32,1.023,2.539,1.396v1.422
			h-18.891v-1.422c1.184-0.305,2.021-0.744,2.514-1.32c0.49-0.575,0.736-1.388,0.736-2.438V867.25c0-1.049-0.238-1.854-0.711-2.412
			c-0.475-0.559-1.32-1.007-2.539-1.346v-1.422h24.029v1.422c-1.592,0.508-2.389,1.473-2.389,2.895c0,1.389,0.576,3.081,1.729,5.078
			l14.184,25.728l14.287-25.372c1.625-2.674,2.438-4.57,2.438-5.688c0-1.388-0.83-2.268-2.488-2.641v-1.422h23.418v1.422
			c-1.219,0.338-2.066,0.786-2.539,1.344c-0.475,0.559-0.711,1.362-0.711,2.411v46.472c0,1.049,0.236,1.86,0.711,2.436
			c0.473,0.575,1.32,1.031,2.539,1.369v1.422h-20.109v-1.422c1.184-0.305,2.021-0.746,2.514-1.322
			c0.49-0.576,0.736-1.389,0.736-2.439v-32.229L1098.107,918.945z"/>
		<path d="M1163.742,894.773v13.863h36.105c1.049,0,1.854-0.233,2.412-0.7c0.559-0.466,1.006-1.316,1.346-2.55h1.422v16.809h-1.422
			c-0.305-1.186-0.746-2.023-1.32-2.514c-0.576-0.491-1.389-0.736-2.438-0.736h-52.965v-1.422c1.184-0.305,2.021-0.744,2.514-1.32
			c0.49-0.575,0.736-1.388,0.736-2.438V867.25c0-1.049-0.238-1.845-0.711-2.387c-0.475-0.541-1.32-0.998-2.539-1.371v-1.422h51.391
			c1.082,0,1.904-0.236,2.463-0.711c0.559-0.474,1.006-1.32,1.346-2.539h1.371v16.809h-1.371c-0.34-1.233-0.787-2.084-1.346-2.55
			c-0.559-0.467-1.381-0.7-2.463-0.7h-34.531v12.492h21.43c1.049,0,1.854-0.236,2.412-0.711c0.559-0.474,1.023-1.32,1.396-2.539
			h1.371v16.402h-1.371c-0.34-1.199-0.787-2.042-1.346-2.524c-0.559-0.483-1.381-0.726-2.463-0.726H1163.742z"/>
		<path d="M1229.25,881.469v32.252c0,1.048,0.244,1.859,0.736,2.434c0.49,0.575,1.328,1.031,2.514,1.369v1.422h-18.891v-1.422
			c1.184-0.305,2.021-0.744,2.514-1.32c0.49-0.575,0.736-1.388,0.736-2.438V867.25c0-1.049-0.238-1.845-0.711-2.387
			c-0.475-0.541-1.32-0.998-2.539-1.371v-1.422h21.844v1.422c-1.49,0.373-2.236,1.033-2.236,1.98c0,0.812,0.543,1.761,1.627,2.844
			l30.512,30.266V867.25c0-1.049-0.238-1.854-0.711-2.412c-0.475-0.559-1.32-1.007-2.539-1.346v-1.422h18.891v1.422
			c-1.219,0.338-2.066,0.786-2.539,1.344c-0.475,0.559-0.711,1.362-0.711,2.411v46.472c0,1.049,0.236,1.852,0.711,2.41
			c0.473,0.559,1.32,1.023,2.539,1.395v1.422h-20.371v-1.422c1.49-0.302,2.236-0.923,2.236-1.864c0-0.47-0.205-0.956-0.611-1.46
			s-1.338-1.495-2.793-2.973L1229.25,881.469z"/>
		<path d="M1322.332,872.379v41.34c0,1.049,0.236,1.852,0.711,2.41c0.473,0.559,1.32,1.023,2.539,1.395v1.422h-20.109v-1.422
			c1.184-0.305,2.021-0.744,2.514-1.32c0.49-0.575,0.736-1.388,0.736-2.438v-41.387h-16.758c-1.084,0-1.904,0.242-2.463,0.726
			c-0.559,0.482-1.008,1.325-1.346,2.524h-1.371V858.82h1.371c0.305,1.186,0.736,2.023,1.295,2.514
			c0.559,0.491,1.381,0.736,2.465,0.736h47.17c1.084,0,1.906-0.236,2.465-0.711c0.559-0.474,1.008-1.32,1.348-2.539h1.371v16.809
			h-1.371c-0.34-1.199-0.787-2.042-1.346-2.524c-0.559-0.483-1.381-0.726-2.463-0.726H1322.332z"/>
	</g>
</g>
</svg>
