<?xml version="1.0" encoding="utf-8"?>
<!-- Generator: Adobe Illustrator 25.4.1, SVG Export Plug-In . SVG Version: 6.00 Build 0)  -->
<svg version="1.1" baseProfile="basic" xmlns="http://www.w3.org/2000/svg" xmlns:xlink="http://www.w3.org/1999/xlink" x="0px"
	 y="0px" viewBox="0 0 1920 1080" xml:space="preserve">
<style type="text/css">
	.st0{fill:none;}
	.st1{display:none;}
	.st2{display:inline;fill:none;stroke:#000000;stroke-width:4;stroke-miterlimit:10;}
	.st3{fill:url(#SVGID_1_);}
	.st4{fill:url(#SVGID_00000028327424317440633360000000565925868071848359_);}
	.st5{fill:url(#SVGID_00000067214800105465532860000010212709647332042135_);}
	.st6{fill:url(#SVGID_00000148659953353288073640000011026472847161472680_);}
	.st7{font-family:'CopperplateGothic-Bold';}
	.st8{font-size:225.3022px;}
	.st9{font-family:'CopperplateGothic-Light';}
	.st10{font-size:104.1571px;}
	.st11{fill:none;stroke:#000000;stroke-width:4;stroke-miterlimit:10;}
</style>
<g id="Layer_1">
	<rect x="1587.45" class="st0" width="2.13" height="204.79"/>
	<g class="st1">
	</g>
	<g class="st1">
	</g>
	<rect x="938.51" y="1049.47" class="st0" width="2.13" height="23.4"/>
	<g class="st1">
	</g>
	<g class="st1">
		<path class="st2" d="M1188.6,486.58"/>
		<path class="st2" d="M849.01,487.15"/>
	</g>
	<g>
		<g>
			<g>
				<linearGradient id="SVGID_1_" gradientUnits="userSpaceOnUse" x1="679.373" y1="554.9229" x2="1272.4277" y2="554.9229">
					<stop  offset="0" style="stop-color:#FFFFFF"/>
					<stop  offset="0.3703" style="stop-color:#A3A3A3"/>
					<stop  offset="1" style="stop-color:#000000"/>
				</linearGradient>
				<path class="st3" d="M715.7,568.73v49.83c0,2.2,0.36,3.91,1.09,5.12c0.72,1.21,1.96,2.14,3.71,2.8V630h-31.91v-3.52
					c1.8-0.73,3.05-1.69,3.75-2.86c0.7-1.17,1.05-2.86,1.05-5.06V491.39c0-2.27-0.35-4-1.05-5.17c-0.7-1.17-1.95-2.13-3.75-2.86
					v-3.52h63.97c7.79,0,13.97,0.66,18.54,1.98s8.55,3.63,11.95,6.93c3.94,3.81,6.89,8.99,8.84,15.51
					c1.85,6.31,2.77,13.05,2.77,20.24c0,24.5-9.26,38.83-27.79,43.01l19.85,41.47c3.5,7.26,6.05,11.94,7.68,14.03
					c1.62,2.09,3.61,3.25,5.96,3.46V630H763.4v-3.52c2.54-0.59,3.81-1.91,3.81-3.96c0-1.32-1.17-4.51-3.51-9.57l-20.71-44.22H715.7z
					 M715.7,543.98h34.46c5.09,0,8.69-0.22,10.79-0.66c2.1-0.44,4.02-1.36,5.77-2.75c3.79-3.01,5.69-8.43,5.69-16.28
					c0-7.85-1.9-13.27-5.69-16.28c-1.8-1.47-3.71-2.4-5.73-2.8c-2.02-0.4-5.63-0.61-10.82-0.61H715.7V543.98z"/>
				
					<linearGradient id="SVGID_00000024720728357260419950000007705136764474120366_" gradientUnits="userSpaceOnUse" x1="679.373" y1="554.9229" x2="1272.4277" y2="554.9229">
					<stop  offset="0" style="stop-color:#FFFFFF"/>
					<stop  offset="0.3703" style="stop-color:#A3A3A3"/>
					<stop  offset="1" style="stop-color:#000000"/>
				</linearGradient>
				<path style="fill:url(#SVGID_00000024720728357260419950000007705136764474120366_);" d="M887.52,591.72h-46.47l-6.88,21.12
					c-0.95,2.93-1.42,5.25-1.42,6.93c0,3.23,1.67,5.46,5.01,6.71V630h-33.82v-3.52c2-0.59,3.52-1.61,4.57-3.08
					c1.05-1.47,2.25-4.33,3.6-8.58l37.6-115.4c1.2-3.67,1.8-6.6,1.8-8.8c0-3.37-1.45-5.79-4.34-7.26v-3.52h36.25v3.52
					c-2.95,1.25-4.42,3.41-4.42,6.49c0,2.13,0.47,4.55,1.42,7.26l38.95,115.73c1.65,4.92,3.1,8.27,4.34,10.07
					c1.25,1.8,2.92,2.99,5.02,3.58V630h-37.64v-3.52c3.3-0.81,4.96-3.08,4.96-6.82c0-1.54-0.5-3.81-1.5-6.82L887.52,591.72z
					 M881.1,571.15l-16.58-53.49l-16.85,53.49H881.1z"/>
				
					<linearGradient id="SVGID_00000145745434314019186320000001384211121983711406_" gradientUnits="userSpaceOnUse" x1="679.373" y1="554.9229" x2="1272.4277" y2="554.9229">
					<stop  offset="0" style="stop-color:#FFFFFF"/>
					<stop  offset="0.3703" style="stop-color:#A3A3A3"/>
					<stop  offset="1" style="stop-color:#000000"/>
				</linearGradient>
				<path style="fill:url(#SVGID_00000145745434314019186320000001384211121983711406_);" d="M1000.37,630l-37.71-103.74v92.19
					c0,2.27,0.35,4,1.05,5.17c0.7,1.17,1.95,2.13,3.75,2.86V630h-30.04v-3.52c1.8-0.73,3.04-1.69,3.75-2.86
					c0.7-1.17,1.05-2.9,1.05-5.17V491.28c0-2.2-0.35-3.89-1.05-5.06c-0.7-1.17-1.95-2.13-3.75-2.86v-3.52h39.41v3.52
					c-2.35,0.88-3.52,2.9-3.52,6.05c0,1.47,0.35,3.15,1.05,5.06l27.89,77.62l28.27-76.3c1.25-3.37,1.87-5.83,1.87-7.37
					c0-3.01-1.25-4.69-3.75-5.06v-3.52h38.66v3.52c-1.8,0.73-3.05,1.69-3.75,2.86c-0.7,1.17-1.05,2.86-1.05,5.06v127.17
					c0,2.27,0.35,4,1.05,5.17c0.7,1.17,1.95,2.13,3.75,2.86V630h-31.91v-3.52c1.75-0.66,2.98-1.59,3.71-2.8
					c0.72-1.21,1.09-2.95,1.09-5.23v-92.19L1000.37,630z"/>
				
					<linearGradient id="SVGID_00000162326501117878705050000003921646678650048426_" gradientUnits="userSpaceOnUse" x1="679.373" y1="554.9229" x2="1272.4277" y2="554.9229">
					<stop  offset="0" style="stop-color:#FFFFFF"/>
					<stop  offset="0.3703" style="stop-color:#A3A3A3"/>
					<stop  offset="1" style="stop-color:#000000"/>
				</linearGradient>
				<path style="fill:url(#SVGID_00000162326501117878705050000003921646678650048426_);" d="M1142.28,567.13v51.31
					c0,2.28,0.36,4,1.07,5.17c0.71,1.17,1.95,2.13,3.72,2.86V630h-32.06v-3.52c1.8-0.73,3.07-1.69,3.82-2.86
					c0.75-1.17,1.12-2.9,1.12-5.17v-51.31l-33.03-68.27c-2.85-5.86-5.08-9.8-6.7-11.82c-1.62-2.01-3.56-3.24-5.8-3.68v-3.52h40.37
					v3.52c-3.35,0.81-5.02,3.08-5.02,6.82c0,1.32,1.02,4.22,3.07,8.69l18.43,40.18l18.96-40.18c2.05-4.32,3.07-7.26,3.07-8.8
					c0-1.68-0.45-3.13-1.35-4.34c-0.9-1.21-2.12-2-3.67-2.36v-3.52h39.54v3.52c-2.25,0.44-4.18,1.67-5.81,3.68
					c-1.62,2.01-3.86,5.96-6.7,11.82L1142.28,567.13z"/>
			</g>
			<text transform="matrix(0.6809 0 0 1 679.3733 630.0051)" class="st7 st8">RAMY</text>
		</g>
		<g>
			<text transform="matrix(0.6876 0 0 1 827.8816 480.4841)" class="st9 st10">Shooting</text>
		</g>
		<line class="st11" x1="848.64" y1="480.48" x2="1188.23" y2="479.91"/>
		<g>
			<path d="M940.63,439.33c1.93,0,1.93-3,0-3C938.7,436.33,938.69,439.33,940.63,439.33L940.63,439.33z"/>
		</g>
		<g>
			<g>
				<g>
					<path d="M1024.02,446.38c-0.82,0.01-1.48,1.33-1.46,2.95c0.02,1.62,0.7,2.93,1.52,2.92s1.48-1.33,1.46-2.95l0-0.01
						C1025.53,447.67,1024.84,446.37,1024.02,446.38z"/>
				</g>
			</g>
			<g>
				<g>
					<path d="M1023.4,439.24c-1.43-2.9-3.43-4.56-5.47-4.54c-0.82,0.01-1.48,1.33-1.46,2.95c0.02,1.62,0.7,2.93,1.52,2.92
						c1.24-0.01,2.41,0.95,3.28,2.72c0.3,0.61,0.7,0.91,1.09,0.91c0.37,0,0.73-0.27,1.02-0.81
						C1023.97,442.27,1023.98,440.41,1023.4,439.24z"/>
				</g>
			</g>
		</g>
	</g>
	<rect x="1527.12" y="540" class="st0" width="2.88" height="2.38"/>
</g>
<g id="Layer_3">
	<g>
		<g>
			<path d="M742.4,514.64c-6.01,0-10.9,5.33-10.9,11.89c0,6.56,4.89,11.89,10.9,11.89c6.01,0,10.9-5.33,10.9-11.89
				C753.3,519.98,748.41,514.64,742.4,514.64z M742.4,535.88c-4.73,0-8.58-4.2-8.58-9.35c0-5.16,3.85-9.35,8.58-9.35
				s8.58,4.2,8.58,9.35C750.97,531.69,747.12,535.88,742.4,535.88z"/>
		</g>
	</g>
	<g>
		<g>
			<path d="M742.4,518.67c-3.97,0-7.2,3.52-7.2,7.86c0,4.33,3.23,7.86,7.2,7.86s7.2-3.52,7.2-7.86
				C749.6,522.2,746.37,518.67,742.4,518.67z M742.4,531.85c-2.69,0-4.88-2.39-4.88-5.32c0-2.93,2.19-5.32,4.88-5.32
				c2.69,0,4.88,2.39,4.88,5.32C747.28,529.46,745.09,531.85,742.4,531.85z"/>
		</g>
	</g>
	<g>
		<g>
			<path d="M763.84,513h-8.55c-0.64,0-1.16,0.57-1.16,1.27v5.04c0,0.7,0.52,1.27,1.16,1.27h8.55c0.64,0,1.16-0.57,1.16-1.27v-5.04
				C765,513.57,764.48,513,763.84,513z M762.68,518.04h-6.22v-2.51h6.22V518.04z"/>
		</g>
	</g>
	<g>
		<g>
			<path d="M723.03,533.4c-1.67,0-3.03,1.48-3.03,3.3s1.36,3.3,3.03,3.3c1.67,0,3.03-1.48,3.03-3.3
				C726.05,534.88,724.7,533.4,723.03,533.4z M723.03,537.47c-0.39,0-0.7-0.34-0.7-0.77s0.32-0.77,0.7-0.77s0.7,0.34,0.7,0.77
				S723.41,537.47,723.03,537.47z"/>
		</g>
	</g>
</g>
<g id="Layer_2">
	<g>
		<g>
			<path d="M1218.7,313.82H796.15v-27.06c0-7.47-5.73-13.53-12.8-13.53h-76.83c-7.07,0-12.8,6.06-12.8,13.53v27.06H655.3
				c-7.07,0-12.8,6.06-12.8,13.53v405.89c0,7.47,5.73,13.53,12.8,13.53h89.63c7.07,0,12.8-6.06,12.8-13.53
				c0-7.47-5.73-13.53-12.8-13.53h-76.83C664.41,614.81,660.7,509.9,657,405c18,0,36,0,54,0c48-24,96-48,144-72c117,0,234,0,351,0
				c3,129,6,258,9,387c-84.92-21-255.39-57.46-342-27c-17.05,6-65.42,23.01-63.99,40.24c0.52,6.2,7.35,10.74,12.8,13.53h396.88
				c7.07,0,12.8-6.06,12.8-13.53V327.35C1227.23,322.84,1222.96,318.33,1218.7,313.82z M770.54,313.82h-51.22v-13.53h51.22
				L770.54,313.82L770.54,313.82z"/>
		</g>
	</g>
	<path d="M1260,765"/>
	<path d="M1080,927"/>
	<path d="M738,882"/>
</g>
</svg>
