<?xml version="1.0" encoding="utf-8"?>
<!-- Generator: Adobe Illustrator 25.4.1, SVG Export Plug-In . SVG Version: 6.00 Build 0)  -->
<svg version="1.1" id="Layer_2" xmlns="http://www.w3.org/2000/svg" xmlns:xlink="http://www.w3.org/1999/xlink" x="0px" y="0px"
	 viewBox="0 0 1280 1024" style="enable-background:new 0 0 1280 1024;" xml:space="preserve">
<style type="text/css">
	.st0{font-family:'FranklinGothic-DemiCond';}
	.st1{font-size:178.0874px;}
	.st2{font-family:'Castellar';}
	.st3{font-size:45px;}
	.st4{fill:none;stroke:#000000;stroke-width:18;stroke-miterlimit:10;}
</style>
<g>
	<g>
		<g>
			<g>
				<path d="M537.605,321.393v-17.292c-8.994-1.134-18.117-1.719-27.333-1.719c-56.719,0-110.044,21.804-150.15,61.396
					c-40.107,39.592-62.194,92.231-62.194,148.222c0,55.991,22.087,108.631,62.194,148.222
					c40.107,39.592,93.431,61.396,150.15,61.396c8.738,0,17.395-0.522,25.936-1.542c0.243-5.786,0.439-11.573,0.612-17.361
					c-8.684,1.172-17.543,1.791-26.547,1.791c-107.528,0-195.01-86.359-195.01-192.507s87.482-192.507,195.01-192.507
					C519.549,319.493,528.671,320.151,537.605,321.393z"/>
				<path d="M542.104,719.29"/>
			</g>
		</g>
		<g>
			<path d="M454.866,563.16l-90.761-147.941c-19.043,27.652-30.173,60.961-30.173,96.781c0,17.802,2.756,34.983,7.863,51.16H454.866
				z"/>
			<polygon points="537.605,364.041 493.002,438.574 537.605,438.574 			"/>
			<path d="M436.206,492.189l91.28-152.531c-5.668-0.544-11.407-0.837-17.218-0.837c-52.576,0-99.818,22.741-132.15,58.701
				L436.206,492.189z"/>
			<path d="M472.706,681.053c0.021-0.037,0.04-0.074,0.058-0.112c0.021-0.406,0.111-0.807,0.272-1.178l-0.058-0.032l55.843-95.644
				H349.998c22.822,48.743,68.012,85.331,122.594,97.056C472.629,681.113,472.666,681.082,472.706,681.053z"/>
			<path d="M537.605,646.537v-35.418l-42.828,73.355c5.107,0.439,10.271,0.705,15.492,0.705c9.19,0,18.214-0.706,27.027-2.044
				C537.514,670.94,537.605,658.741,537.605,646.537z"/>
			<path d="M543.18,682.153"/>
		</g>
	</g>
	<g>
		<text transform="matrix(1.0105 0 0 1 546.2901 569.1401)" class="st0 st1">RAMY</text>
		<text transform="matrix(1.082 0 0 1 557.4356 625.3784)" class="st2 st3">photography</text>
	</g>
	<line class="st4" x1="535.075" y1="751.626" x2="534.479" y2="272.374"/>
</g>
</svg>
